<?xml version="1.0" encoding="UTF-8" standalone="no"?>
<svg width="83px" height="83px" viewBox="0 0 83 83" version="1.1" xmlns="http://www.w3.org/2000/svg" xmlns:xlink="http://www.w3.org/1999/xlink">
    <!-- Generator: Sketch 41.2 (35397) - http://www.bohemiancoding.com/sketch -->
    <title>Group</title>
    <desc>Created with Sketch.</desc>
    <defs></defs>
    <g id="Lender-Registration-process" stroke="none" stroke-width="1" fill="none" fill-rule="evenodd">
        <g id="LendReg_1.3" transform="translate(-321.000000, -297.000000)">
            <g id="Group" transform="translate(321.000000, 297.000000)">
                <path d="M41.5260392,0.708754902 C19.0330392,0.708754902 0.734794118,19.0078137 0.734794118,41.4975588 C0.736421569,63.9905588 19.0354804,82.2904314 41.5276667,82.2904314 L41.5309216,82.2904314 C64.0206667,82.2904314 82.3172843,63.9905588 82.3172843,41.4975588 C82.3172843,19.007 64.0190392,0.708754902 41.5260392,0.708754902 Z" id="Path" fill="#1472BC"></path>
                <path d="M41.5309216,79.0355294 C20.8305588,79.0355294 3.99132353,62.1962941 3.98969608,41.4975588 C3.98969608,20.8012647 20.8281176,3.96365686 41.5260392,3.96365686 C62.2239608,3.96365686 79.0623824,20.8020784 79.0623824,41.4975588 C79.0623824,62.1962941 62.226402,79.0355294 41.5309216,79.0355294 Z" id="Path" fill="#FFFFFF"></path>
                <path d="M58.8022451,27.2516667 L33.757402,52.2956961 L24.2522745,42.7889412 C23.6167549,42.1526078 22.5865784,42.1526078 21.9510588,42.7873137 C21.3155392,43.4236471 21.3155392,44.4538235 21.9510588,45.0893431 L33.7582157,56.8989412 L61.1034608,29.5520686 C61.7389804,28.9181765 61.7389804,27.8871863 61.1034608,27.2516667 C60.4679412,26.6153333 59.4377647,26.6153333 58.8022451,27.2516667 Z" id="Path" fill="#00B0F0"></path>
            </g>
        </g>
    </g>
</svg>