<?xml version="1.0" encoding="UTF-8" standalone="no"?>
<svg width="29px" height="29px" viewBox="0 0 29 29" version="1.1" xmlns="http://www.w3.org/2000/svg" xmlns:xlink="http://www.w3.org/1999/xlink">
    <!-- Generator: Sketch 41.2 (35397) - http://www.bohemiancoding.com/sketch -->
    <title>Group 10</title>
    <desc>Created with Sketch.</desc>
    <defs></defs>
    <g id="Lender-Registration-process" stroke="none" stroke-width="1" fill="none" fill-rule="evenodd">
        <g id="Lender-RegFinale-1.11" transform="translate(-1348.000000, -214.000000)">
            <g id="Group-10" transform="translate(1348.000000, 214.000000)">
                <path d="M14.5116513,28.6434371 C6.71172722,28.6434371 0.366681084,22.298391 0.366067859,14.4990802 C0.366067859,6.70068916 6.71080738,0.356256248 14.5098116,0.356256248 C22.3088158,0.356256248 28.6535554,6.70099577 28.6535554,14.4990802 C28.6535554,22.298391 22.3097357,28.6434371 14.5116513,28.6434371 Z" id="Path" fill="#2BC769"></path>
                <path d="M21.0195088,9.13120915 L11.5825788,18.5678326 L8.00103422,14.9856747 C7.76156959,14.7459035 7.37339773,14.7459035 7.1339331,14.9850615 C6.89446847,15.2248328 6.89446847,15.6130046 7.1339331,15.8524692 L11.5828854,20.3023414 L21.88661,9.99800365 C22.1260746,9.75915225 22.1260746,9.37067378 21.88661,9.13120915 C21.6471453,8.89143791 21.2589735,8.89143791 21.0195088,9.13120915 Z" id="Path" fill="#FFFFFF"></path>
            </g>
        </g>
    </g>
</svg>